' Copyright (C) 2019 - present Juergen Zimmermann, Hochschule Karlsruhe
'
' This program is free software: you can redistribute it and/or modify
' it under the terms of the GNU General Public License as published by
' the Free Software Foundation, either version 3 of the License, or
' (at your option) any later version.
'
' This program is distributed in the hope that it will be useful,
' but WITHOUT ANY WARRANTY; without even the implied warranty of
' MERCHANTABILITY or FITNESS FOR A PARTICULAR PURPOSE.  See the
' GNU General Public License for more details.
'
' You should have received a copy of the GNU General Public License
' along with this program.  If not, see <http://www.gnu.org/licenses/>.
@startuml Anwendungskern

!pragma useNewPackage
skinparam classAttributeIconSize 0
skinparam componentStyle uml2

package mongoose {
  class Schema

  class "model()" as model
  hide model circle
}

package pflanze.entity {
  class "validatePflanze()" as validatePflanze
  hide validatePflanze circle

  class PflanzeModel
  hide PflanzeModel circle

  PflanzeModel ..> Schema
  PflanzeModel ..> model
  PflanzeModel ..> validatePflanze

  PflanzeData ..> PflanzeArt
  PflanzeData ..> Verlag

  enum PflanzeArt {
    KINDLE
    DRUCKAUSGABE
  }

  enum Verlag {
    FOO_VERLAG
    BAR_VERLAG
  }

  interface PflanzeData <<entity>> {
    + _id?: string
    + __v?: number
    + createdAt?: number
    + updatedAt?: number
    + name: string
    + rating?: number
    + art?: PflanzeArt
    + verlag: Verlag
    + preis: number
    + rabatt?: number
    + lieferbar?: boolean
    + datum?: Date
    + isbn: string
    + homepage?: string
    + schlagwoerter?: Array<string>
    + autoren: any
  }
}

hide empty members

footer (c) Jürgen Zimmermann

@enduml
